<svg width="20" height="21" viewBox="0 0 20 21" fill="none" xmlns="http://www.w3.org/2000/svg">
<path d="M2.17012 20.9688C1.2958 20.9688 0.796192 20.5941 0.671289 19.9696C0.296582 18.9703 1.2958 18.3458 1.67051 18.096C2.41992 17.5964 2.79463 17.2217 2.91953 16.847C2.91953 16.5972 2.79463 16.3474 2.54483 15.9727C2.54483 15.9727 2.54483 15.8478 2.41992 15.8478C1.1709 14.224 0.546387 12.2256 0.546387 10.2272C0.546387 5.10616 4.79307 0.984375 9.91407 0.984375C15.0351 0.984375 19.2818 5.10616 19.2818 10.2272C19.2818 15.3482 15.0351 19.4699 9.91407 19.4699C9.28956 19.4699 8.66505 19.345 8.04054 19.2201C4.79307 20.8439 2.41992 20.9688 2.41992 20.9688C2.29502 20.9688 2.29502 20.9688 2.17012 20.9688ZM4.66817 14.5987C5.29268 15.4731 5.54249 16.4723 5.41758 17.3466C5.41758 17.4715 5.29268 17.7213 5.29268 17.8462C5.91719 17.5964 6.54171 17.3466 7.29112 16.9719C7.54093 16.847 7.79073 16.7221 8.04054 16.847H8.16544C8.66505 16.9719 9.28956 17.0968 9.91407 17.0968C13.6611 17.0968 16.7837 14.0991 16.7837 10.3521C16.7837 6.60499 13.6611 3.48242 9.91407 3.48242C6.167 3.48242 3.04444 6.48009 3.04444 10.2272C3.04444 11.726 3.54405 13.2248 4.54327 14.3489C4.54327 14.4738 4.66817 14.4738 4.66817 14.5987Z" fill="white"/>
</svg>
